<svg width="208" height="60" xmlns="http://www.w3.org/2000/svg" xmlns:svg="http://www.w3.org/2000/svg">
 <style type="text/css">.st0{display:none;enable-background:new    ;}
	.st1{display:inline;fill:#1CA766;}
	.st2{fill:#151B26;}
	.st3{fill:#FFFFFF;}</style>
 <g class="layer">
  <title>Logo</title>
  <g id="svg_1">
   <path d="m74.32644,31.8c-0.17089,1.576 -0.71267,2.792 -1.62154,3.647c-0.91014,0.856 -2.12028,1.284 -3.62917,1.284c-1.63547,0 -2.94814,-0.63 -3.93423,-1.892c-0.98609,-1.261 -1.4785,-2.948 -1.4785,-5.062l0,-1.432c0,-1.384 0.22912,-2.601 0.68862,-3.65s1.11141,-1.855 1.95446,-2.418c0.84305,-0.563 1.82028,-0.844 2.92916,-0.844c1.47091,0 2.65067,0.441 3.53929,1.325c0.88735,0.883 1.40382,2.105 1.55065,3.668l-1.83547,0c-0.15823,-1.189 -0.50254,-2.051 -1.03166,-2.584c-0.52912,-0.533 -1.26964,-0.8 -2.22155,-0.8c-1.16711,0 -2.08231,0.464 -2.74434,1.391c-0.66203,0.928 -0.99368,2.247 -0.99368,3.958l0,1.442c0,1.616 0.31393,2.901 0.94179,3.855c0.62786,0.954 1.50508,1.432 2.63548,1.432c1.01394,0 1.7937,-0.247 2.33548,-0.741s0.90128,-1.354 1.07976,-2.581l1.83547,0l0,0.002z" fill="#818285" id="svg_2"/>
   <path d="m87.52789,24.585c0,1.228 -0.23291,2.093 -0.69874,2.594s-1.20635,0.765 -2.22028,0.792l0,8.558l-1.67471,0l-0.03798,-1.095c-0.68482,0.865 -1.6899,1.298 -3.01523,1.298c-1.09748,0 -1.93294,-0.343 -2.50636,-1.027c-0.57343,-0.685 -0.86457,-1.698 -0.8709,-3.041l0,-7.197l1.76078,0l0,7.143c0,1.676 0.63419,2.514 1.90256,2.514c1.34432,0 2.23927,-0.538 2.68232,-1.614l0,-8.042l1.76078,0l0,1.339c0.43039,-0.014 0.75444,-0.08 0.96963,-0.199s0.36963,-0.302 0.46203,-0.547c0.09114,-0.246 0.13798,-0.737 0.13798,-1.474l1.34812,0l0,-0.002zm-7.38112,-0.729l-0.01013,-1.564c0.47469,-0.034 0.82406,-0.103 1.04558,-0.204c0.22279,-0.103 0.33418,-0.287 0.33418,-0.553s-0.14431,-0.465 -0.43292,-0.598s-0.6709,-0.199 -1.14685,-0.199l0.06709,-1.085c0.94558,0 1.66205,0.176 2.1494,0.526c0.48861,0.352 0.73292,0.816 0.73292,1.396c0,0.416 -0.12405,0.76 -0.37089,1.033c-0.24684,0.272 -0.6152,0.446 -1.10381,0.521l-0.00886,0.726l-1.25571,0l0,0.001z" fill="#818285" id="svg_3"/>
   <path d="m94.95585,36.528c-0.10127,-0.219 -0.18481,-0.608 -0.24684,-1.169c-0.81773,0.915 -1.79496,1.372 -2.92916,1.372c-1.0152,0 -1.84686,-0.309 -2.4975,-0.927c-0.65064,-0.617 -0.97596,-1.4 -0.97596,-2.35c0,-1.154 0.4076,-2.05 1.2228,-2.688c0.8152,-0.639 1.96079,-0.958 3.43929,-0.958l1.71268,0l0,-0.867c0,-0.66 -0.18481,-1.186 -0.55191,-1.577c-0.36836,-0.391 -0.91014,-0.587 -1.62661,-0.587c-0.62786,0 -1.15445,0.17 -1.57977,0.51c-0.42406,0.339 -0.63672,0.75 -0.63672,1.232l-1.76965,0c0,-0.552 0.18355,-1.086 0.54811,-1.601c0.36456,-0.516 0.85951,-0.923 1.48357,-1.223c0.62533,-0.3 1.31141,-0.45 2.05952,-0.45c1.18609,0 2.11522,0.319 2.78738,0.957c0.67216,0.639 1.02153,1.517 1.04685,2.636l0,5.099c0,1.017 0.12025,1.825 0.36203,2.426l0,0.164l-1.84813,0l0,0.001zm-2.92029,-1.437c0.55191,0 1.0747,-0.153 1.56964,-0.462c0.49494,-0.307 0.85318,-0.707 1.07596,-1.199l0,-2.276l-1.37977,0c-2.15573,0 -3.23422,0.681 -3.23422,2.04c0,0.596 0.18355,1.061 0.55191,1.395c0.36709,0.335 0.83925,0.502 1.41648,0.502z" fill="#818285" id="svg_4"/>
   <path d="m101.3091,34.919l6.56338,0l0,1.609l-8.40012,0l0,-14.89l1.83673,0l0,13.281z" fill="#818285" id="svg_5"/>
   <path d="m120.24608,24.585c0,1.228 -0.23418,2.093 -0.70001,2.594s-1.20635,0.765 -2.22155,0.792l0,8.558l-1.67344,0l-0.03798,-1.095c-0.68482,0.865 -1.6899,1.298 -3.01523,1.298c-1.09748,0 -1.93294,-0.343 -2.50636,-1.027c-0.57469,-0.685 -0.86457,-1.698 -0.8709,-3.041l0,-7.197l1.75952,0l0,7.143c0,1.676 0.63419,2.514 1.90256,2.514c1.34432,0 2.23927,-0.538 2.68232,-1.614l0,-8.042l1.75952,0l0,1.339c0.43165,-0.014 0.75444,-0.08 0.9709,-0.199s0.36963,-0.302 0.46077,-0.547c0.09241,-0.246 0.13798,-0.737 0.13798,-1.474l1.35192,0l0,-0.002z" fill="#818285" id="svg_6"/>
   <path d="m120.85368,30.887c0,-1.085 0.19494,-2.059 0.58482,-2.922c0.38988,-0.863 0.94179,-1.532 1.65572,-2.006c0.71267,-0.475 1.52281,-0.712 2.43041,-0.712c1.31268,0 2.40003,0.471 3.26334,1.413c0.44937,-0.055 0.77723,-0.253 0.97976,-0.594s0.3038,-0.948 0.3038,-1.821l1.4266,0c0,1.985 -0.65697,3.151 -1.96838,3.499c0.46203,0.941 0.69368,1.989 0.69368,3.143l0,0.225c0,1.079 -0.19747,2.051 -0.58988,2.918s-0.94432,1.533 -1.65572,2.001c-0.71014,0.468 -1.52154,0.701 -2.43548,0.701c-1.40761,0 -2.54181,-0.523 -3.40131,-1.571c-0.85951,-1.047 -1.28863,-2.428 -1.28863,-4.141l0,-0.133l0.00127,0zm1.75952,0.228c0,1.227 0.26456,2.212 0.79495,2.955c0.52912,0.743 1.24052,1.114 2.13547,1.114c0.88103,0 1.58736,-0.373 2.11649,-1.12c0.52912,-0.746 0.79368,-1.75 0.79368,-3.012l0,-0.162c0,-1.233 -0.26836,-2.222 -0.80381,-2.966c-0.53672,-0.742 -1.24432,-1.114 -2.12661,-1.114c-0.8747,0 -1.57977,0.372 -2.11142,1.114c-0.53165,0.744 -0.79875,1.806 -0.79875,3.191zm3.78107,-10.305l2.13041,0l-2.5494,3.016l-1.41774,-0.008l1.83673,-3.008z" fill="#818285" id="svg_7"/>
   <path d="m132.45764,22.531c0,-0.308 0.08734,-0.567 0.26203,-0.779c0.17469,-0.211 0.43292,-0.317 0.77469,-0.317s0.60254,0.106 0.77976,0.317c0.17722,0.212 0.26583,0.472 0.26583,0.779c0,0.307 -0.08861,0.563 -0.26583,0.768s-0.43798,0.308 -0.77976,0.308s-0.60127,-0.103 -0.77469,-0.308s-0.26203,-0.461 -0.26203,-0.768zm1.90256,13.997l-1.75952,0l0,-11.062l1.75952,0l0,11.062z" fill="#818285" id="svg_8"/>
   <path d="m137.73873,36.528l0,-6.813l-1.82661,0l0,-1.547l1.82661,0l0,-6.531l3.91018,0c1.20381,0 2.26965,0.286 3.19498,0.859c0.92533,0.572 1.64053,1.388 2.14433,2.444s0.76077,2.27 0.76583,3.641l0,0.951c0,1.404 -0.2519,2.635 -0.75697,3.691s-1.22407,1.868 -2.15952,2.435c-0.93546,0.565 -2.02408,0.855 -3.26713,0.869l-3.8317,0l0,0.001zm4.22284,-6.812l-2.3975,0l0,5.203l1.91269,0c1.40761,0 2.50383,-0.467 3.28739,-1.401c0.78229,-0.935 1.1785,-2.25 1.18483,-3.949l0,-0.951c0,-1.691 -0.36963,-3.006 -1.10761,-3.943c-0.73925,-0.938 -1.78737,-1.413 -3.14435,-1.427l-2.13168,0l0,4.922l2.3975,0l0,1.546l-0.00127,0z" fill="#818285" id="svg_9"/>
   <path d="m156.59596,36.528c-0.10127,-0.219 -0.18481,-0.608 -0.24684,-1.169c-0.81773,0.915 -1.79496,1.372 -2.93042,1.372c-1.0152,0 -1.84686,-0.309 -2.4975,-0.927c-0.65064,-0.617 -0.97596,-1.4 -0.97596,-2.35c0,-1.154 0.4076,-2.05 1.2228,-2.688c0.8152,-0.639 1.96205,-0.958 3.43929,-0.958l1.71268,0l0,-0.867c0,-0.66 -0.18355,-1.186 -0.55191,-1.577c-0.36836,-0.391 -0.91014,-0.587 -1.62661,-0.587c-0.62786,0 -1.15445,0.17 -1.5785,0.51c-0.42532,0.339 -0.63798,0.75 -0.63798,1.232l-1.76838,0c0,-0.552 0.18228,-1.086 0.54684,-1.601c0.36456,-0.516 0.85951,-0.923 1.48483,-1.223c0.62406,-0.3 1.31015,-0.45 2.05952,-0.45c1.18609,0 2.11522,0.319 2.78738,0.957c0.6709,0.639 1.02153,1.517 1.04558,2.636l0,5.099c0,1.017 0.12152,1.825 0.36076,2.426l0,0.164l-1.8456,0l0,0.001zm-1.16204,-12.711l-1.51268,0.008l-2.4532,-3.016l2.12155,0l1.84433,3.008zm-1.75952,11.274c0.55191,0 1.0747,-0.153 1.56964,-0.462c0.49494,-0.307 0.85318,-0.707 1.0747,-1.199l0,-2.276l-1.37977,0c-2.15573,0 -3.23422,0.681 -3.23422,2.04c0,0.596 0.18481,1.061 0.55191,1.395c0.36836,0.335 0.84052,0.502 1.41774,0.502z" fill="#818285" id="svg_10"/>
   <path d="m171.75567,36.528l-1.83547,0l-6.97225,-11.475l0,11.475l-1.83673,0l0,-14.89l1.83673,0l6.99124,11.526l0,-11.526l1.81648,0l0,14.89z" fill="#818285" id="svg_11"/>
   <path d="m181.08491,36.528c-0.10127,-0.219 -0.18355,-0.608 -0.24684,-1.169c-0.81773,0.915 -1.79496,1.372 -2.92916,1.372c-1.0152,0 -1.84686,-0.309 -2.4975,-0.927c-0.65064,-0.617 -0.9747,-1.4 -0.9747,-2.35c0,-1.154 0.40633,-2.05 1.22154,-2.688c0.81647,-0.639 1.96205,-0.958 3.43929,-0.958l1.71395,0l0,-0.867c0,-0.66 -0.18481,-1.186 -0.55317,-1.577c-0.36709,-0.391 -0.91014,-0.587 -1.62661,-0.587c-0.62786,0 -1.15445,0.17 -1.5785,0.51c-0.42532,0.339 -0.63798,0.75 -0.63798,1.232l-1.76838,0c0,-0.552 0.18228,-1.086 0.54684,-1.601c0.36456,-0.516 0.85951,-0.923 1.48483,-1.223c0.62406,-0.3 1.31015,-0.45 2.05952,-0.45c1.18609,0 2.11395,0.319 2.78612,0.957c0.67216,0.639 1.02153,1.517 1.04685,2.636l0,5.099c0,1.017 0.12025,1.825 0.36203,2.426l0,0.164l-1.84813,0l0,0.001zm0.58482,-15.031c0,0.646 -0.2557,1.169 -0.76457,1.57c-0.5114,0.401 -1.19116,0.602 -2.04054,0.602c-0.85697,0 -1.53926,-0.2 -2.05066,-0.602c-0.50887,-0.401 -0.76457,-0.925 -0.76457,-1.57l1.42787,0c0,0.367 0.11646,0.659 0.35064,0.877s0.58102,0.326 1.03672,0.326c0.44937,0 0.79242,-0.108 1.02786,-0.326s0.3519,-0.51 0.3519,-0.877l1.42534,0zm-3.50511,13.594c0.55191,0 1.07596,-0.153 1.56964,-0.462c0.49494,-0.307 0.85318,-0.707 1.07596,-1.199l0,-2.276l-1.37977,0c-2.15699,0 -3.23549,0.681 -3.23549,2.04c0,0.596 0.18481,1.061 0.55317,1.395c0.36709,0.335 0.83925,0.502 1.41648,0.502zm3.41904,-16.32c0,0.506 -0.15317,0.938 -0.45697,1.297c-0.3038,0.359 -0.67849,0.538 -1.1228,0.538c-0.36709,0 -0.74052,-0.128 -1.11774,-0.383s-0.70634,-0.383 -0.98356,-0.383c-0.21646,0 -0.40001,0.087 -0.55317,0.26s-0.22785,0.389 -0.22785,0.646l-0.78988,-0.215c0,-0.512 0.1519,-0.95 0.4557,-1.315c0.30507,-0.365 0.67596,-0.548 1.11394,-0.548c0.3038,0 0.6595,0.128 1.06964,0.383s0.75318,0.383 1.03166,0.383c0.22279,0 0.40887,-0.087 0.56077,-0.26s0.22912,-0.39 0.22912,-0.649l0.79115,0.246z" fill="#818285" id="svg_12"/>
   <path d="m186.98626,25.466l0.05696,1.378c0.78609,-1.064 1.81522,-1.597 3.08359,-1.597c2.17471,0 3.27093,1.32 3.29119,3.962l0,7.319l-1.76078,0l0,-7.328c-0.00633,-0.798 -0.17595,-1.389 -0.5076,-1.771c-0.33418,-0.382 -0.85191,-0.573 -1.55572,-0.573c-0.56963,0 -1.0709,0.164 -1.50255,0.491c-0.43165,0.328 -0.7671,0.758 -1.00887,1.289l0,7.892l-1.76078,0l0,-11.062l1.66458,0z" fill="#818285" id="svg_13"/>
  </g>
  <g id="svg_14">
   <rect fill="#00a63f" height="4.709" id="svg_15" width="4.324" x="11.918" y="25.987"/>
   <rect fill="#00a63f" height="4.709" id="svg_16" width="4.323" x="17.683" y="25.987"/>
   <rect fill="#00a63f" height="4.709" id="svg_17" width="4.324" x="11.918" y="32.202"/>
   <rect fill="#00a63f" height="4.709" id="svg_18" width="4.323" x="17.683" y="32.202"/>
   <rect fill="#00a63f" height="4.709" id="svg_19" width="4.323" x="38.038" y="25.987"/>
   <rect fill="#00a63f" height="4.709" id="svg_20" width="4.323" x="43.802" y="25.987"/>
   <rect fill="#00a63f" height="4.709" id="svg_21" width="4.323" x="38.038" y="32.202"/>
   <rect fill="#00a63f" height="4.709" id="svg_22" width="4.323" x="43.802" y="32.202"/>
   <polygon fill="#00a63f" id="svg_23" points="59.92900085449219,18.31100082397461 43.10300064086914,6.258999824523926 43.09700012207031,6.25 43.09400177001953,6.251999855041504 43.09000015258789,6.25 43.084999084472656,6.258999824523926 30.0049991607666,15.628000259399414 16.92300033569336,6.257999897003174 16.917999267578125,6.25 16.915000915527344,6.251999855041504 16.91200065612793,6.25 16.906999588012695,6.257999897003174 7.685999870300293,12.86299991607666 7.685999870300293,9.07699966430664 0,9.07699966430664 0,52.119998931884766 7.685999870300293,52.119998931884766 7.685999870300293,22.884000778198242 16.915000915527344,16.273000717163086 25.93899917602539,22.736000061035156 25.93899917602539,52.119998931884766 33.625,52.119998931884766 33.625,23.055999755859375 43.09400177001953,16.273000717163086 52.237998962402344,22.82200050354004 52.237998962402344,52.05500030517578 59.92300033569336,52.05500030517578 59.92300033569336,18.36400032043457 59.895999908447266,18.36400032043457 "/>
  </g>
  <g id="svg_24">
   <path d="m200.37242,26.869c-0.85766,0 -1.52883,0.357 -2.01221,1.073c-0.48212,0.714 -0.72318,1.772 -0.72318,3.174c0,1.247 0.23852,2.226 0.7143,2.937c0.47578,0.713 1.14313,1.067 2.00206,1.067c1.11268,0 1.92975,-0.541 2.44993,-1.623l0,-5.045c-0.54048,-1.056 -1.34993,-1.583 -2.4309,-1.583z" fill="none" id="svg_25"/>
   <path d="m202.96698,25.461l-0.08627,1.23c-0.70542,-0.953 -1.68742,-1.431 -2.946,-1.431c-1.22687,0 -2.21014,0.511 -2.95488,1.528c-0.74348,1.019 -1.11522,2.39 -1.11522,4.114c0,1.798 0.37301,3.219 1.12029,4.261c0.74728,1.043 1.72294,1.564 2.93205,1.564c1.22052,0 2.18222,-0.436 2.88764,-1.309l0,0.953c0,0.943 -0.23852,1.675 -0.71937,2.193c-0.47958,0.519 -1.14947,0.779 -2.00714,0.779c-0.11926,0 -0.24613,0.011 -0.37555,0.026l-135.57953,0l0,1.527l136.68586,0l0,-0.063c1.04924,-0.11 1.91833,-0.495 2.58188,-1.188c0.79042,-0.825 1.18627,-1.953 1.18627,-3.387l0,-10.797l-1.61002,0zm-0.16367,8.036c-0.52018,1.082 -1.33725,1.623 -2.44993,1.623c-0.85893,0 -1.52629,-0.354 -2.00206,-1.067c-0.47704,-0.711 -0.7143,-1.689 -0.7143,-2.937c0,-1.401 0.24106,-2.46 0.72318,-3.174c0.48339,-0.716 1.15455,-1.073 2.01221,-1.073c1.08223,0 1.89041,0.526 2.4309,1.583l0,5.045z" fill="#818285" id="svg_26"/>
  </g>
  <g id="svg_27">
   <path d="m180.516,51.538c0,-0.137 0.043,-0.253 0.13,-0.349c0.086,-0.096 0.206,-0.144 0.359,-0.144s0.274,0.048 0.362,0.144s0.132,0.212 0.132,0.349s-0.044,0.249 -0.132,0.337s-0.209,0.132 -0.362,0.132s-0.273,-0.044 -0.359,-0.132c-0.087,-0.088 -0.13,-0.2 -0.13,-0.337z" fill="#818285" id="svg_28"/>
   <path d="m185.694,51.483c0.479,0 0.881,-0.138 1.205,-0.413s0.5,-0.631 0.526,-1.068l0.661,0c-0.019,0.387 -0.138,0.739 -0.356,1.058c-0.219,0.319 -0.509,0.568 -0.871,0.748s-0.751,0.27 -1.165,0.27c-0.816,0 -1.464,-0.289 -1.941,-0.868c-0.478,-0.578 -0.717,-1.355 -0.717,-2.333l0,-0.211c0,-0.625 0.107,-1.179 0.322,-1.659s0.522,-0.852 0.924,-1.114c0.4,-0.262 0.869,-0.393 1.406,-0.393c0.683,0 1.245,0.207 1.688,0.621c0.442,0.415 0.68,0.96 0.71,1.636l-0.661,0c-0.03,-0.495 -0.206,-0.895 -0.526,-1.199c-0.32,-0.304 -0.724,-0.456 -1.211,-0.456c-0.621,0 -1.104,0.229 -1.447,0.686c-0.343,0.457 -0.515,1.097 -0.515,1.921l0,0.205c0,0.809 0.172,1.439 0.515,1.892c0.344,0.451 0.828,0.677 1.453,0.677z" fill="#818285" id="svg_29"/>
   <path d="m189.083,48.694c0,-0.609 0.115,-1.159 0.348,-1.647s0.56,-0.869 0.983,-1.141s0.904,-0.407 1.441,-0.407c0.828,0 1.499,0.296 2.014,0.889c0.514,0.592 0.771,1.376 0.771,2.354l0,0.146c0,0.614 -0.116,1.166 -0.348,1.656c-0.232,0.49 -0.56,0.869 -0.981,1.135s-0.903,0.398 -1.443,0.398c-0.825,0 -1.495,-0.296 -2.011,-0.888c-0.516,-0.593 -0.773,-1.377 -0.773,-2.354l0,-0.141l-0.001,0zm0.69,0.195c0,0.758 0.192,1.379 0.578,1.865c0.385,0.486 0.891,0.729 1.516,0.729c0.621,0 1.124,-0.243 1.51,-0.729s0.578,-1.127 0.578,-1.924l0,-0.135c0,-0.484 -0.088,-0.928 -0.265,-1.33c-0.176,-0.401 -0.424,-0.713 -0.742,-0.934s-0.683,-0.331 -1.093,-0.331c-0.613,0 -1.114,0.245 -1.501,0.735c-0.388,0.49 -0.581,1.131 -0.581,1.924l0,0.13z" fill="#818285" id="svg_30"/>
   <path d="m196.685,45.616l0.023,1.032c0.23,-0.383 0.518,-0.671 0.863,-0.862c0.345,-0.191 0.729,-0.287 1.15,-0.287c0.981,0 1.604,0.41 1.869,1.231c0.223,-0.395 0.52,-0.699 0.892,-0.912s0.782,-0.319 1.231,-0.319c1.334,0 2.016,0.743 2.042,2.228l0,4.233l-0.69,0l0,-4.181c-0.004,-0.566 -0.124,-0.986 -0.359,-1.261c-0.236,-0.273 -0.62,-0.41 -1.153,-0.41c-0.495,0.008 -0.913,0.171 -1.254,0.489c-0.342,0.319 -0.531,0.707 -0.569,1.164l0,4.198l-0.69,0l0,-4.233c-0.004,-0.543 -0.13,-0.949 -0.377,-1.217s-0.628,-0.401 -1.142,-0.401c-0.434,0 -0.806,0.126 -1.116,0.378s-0.541,0.627 -0.69,1.123l0,4.351l-0.69,0l0,-6.344l0.66,0z" fill="#818285" id="svg_31"/>
  </g>
 </g>
</svg>